<?xml version="1.0" encoding="UTF-8" standalone="no"?>
<svg
   xmlns:dc="http://purl.org/dc/elements/1.1/"
   xmlns:cc="http://creativecommons.org/ns#"
   xmlns:rdf="http://www.w3.org/1999/02/22-rdf-syntax-ns#"
   xmlns:svg="http://www.w3.org/2000/svg"
   xmlns="http://www.w3.org/2000/svg"
   id="svg8"
   version="1.1"
   viewBox="0 0 143.30412 50.446705"
   height="50.446705mm"
   width="143.30412mm">
  <defs
     id="defs2" />
  <metadata
     id="metadata5">
    <rdf:RDF>
      <cc:Work
         rdf:about="">
        <dc:format>image/svg+xml</dc:format>
        <dc:type
           rdf:resource="http://purl.org/dc/dcmitype/StillImage" />
        <dc:title></dc:title>
      </cc:Work>
    </rdf:RDF>
  </metadata>
  <g
     transform="translate(-18.885451,-146.82814)"
     style="display:none"
     id="layer1">
    <flowRoot
       transform="scale(0.26458333)"
       style="font-style:normal;font-weight:normal;font-size:40px;line-height:1.25;font-family:sans-serif;letter-spacing:0px;word-spacing:0px;fill:#000000;fill-opacity:1;stroke:none"
       id="flowRoot3727"
       xml:space="preserve"><flowRegion
         id="flowRegion3729"><rect
           y="502.28601"
           x="-172.73608"
           height="299.00516"
           width="406.08133"
           id="rect3731" /></flowRegion><flowPara
         id="flowPara3733"></flowPara></flowRoot>    <path
       id="path3952"
       d="m 60.937451,194.63577 c -1.336348,0.80181 -2.672695,1.60361 -4.009043,2.40542 0,-10.02261 0,-20.04521 0,-30.06782 -4.320857,-5.83538 -8.641715,-11.67077 -12.962572,-17.50615 1.336348,-0.80181 2.672695,-1.60362 4.009043,-2.40543 4.320857,5.80205 8.641715,11.60409 12.962572,17.40614 0,10.05595 0,20.11189 0,30.16784 z"
       style="fill:none;stroke:#000000;stroke-width:0.26458332px;stroke-linecap:butt;stroke-linejoin:miter;stroke-opacity:1" />
    <path
       id="path3964"
       d="m 78.042698,149.46722 c -0.06257,15.85799 -0.125141,31.71598 -0.187712,47.57397 1.354374,-0.80181 2.708748,-1.60361 4.063122,-2.40542"
       style="fill:none;stroke:#000000;stroke-width:0.26458332px;stroke-linecap:butt;stroke-linejoin:miter;stroke-opacity:1" />
    <path
       id="path3966"
       d="m 78.042698,149.46722 c 1.139228,-0.80181 2.278455,-1.60362 3.417683,-2.40543 3.849802,5.00024 7.699605,10.00047 11.549407,15.00071"
       style="fill:none;stroke:#000000;stroke-width:0.23066102px;stroke-linecap:butt;stroke-linejoin:miter;stroke-opacity:1" />
    <path
       id="path3974"
       d="m 81.918108,194.63577 c 0,-13.31158 0,-26.62317 0,-39.93475 3.697227,4.99316 7.394453,9.98632 11.09168,14.97948"
       style="fill:none;stroke:#000000;stroke-width:0.26458332px;stroke-linecap:butt;stroke-linejoin:miter;stroke-opacity:1" />
    <path
       id="path3978"
       d="m 93.009788,169.6805 c 0,-2.53933 0,-5.07867 0,-7.618"
       style="fill:none;stroke:#000000;stroke-width:0.26458332px;stroke-linecap:butt;stroke-linejoin:miter;stroke-opacity:1" />
    <path
       id="path3980"
       d="m 103.96784,147.06179 c 1.33635,0.80181 2.6727,1.60362 4.00905,2.40543 0,15.85799 0,31.71598 0,47.57397 -1.33635,-0.80181 -2.6727,-1.60361 -4.00905,-2.40542 0,-15.85799 0,-31.71599 0,-47.57398 z"
       style="fill:none;stroke:#000000;stroke-width:0.26458332px;stroke-linecap:butt;stroke-linejoin:miter;stroke-opacity:1" />
    <path
       id="path4043"
       d="m 157.99404,147.06179 c 1.35442,0.80181 2.70883,1.60362 4.06325,2.40543 0,15.05618 0,30.11237 0,45.16855 -1.35442,0.80181 -2.70883,1.60361 -4.06325,2.40542 0,-16.6598 0,-33.3196 0,-49.9794 z"
       style="fill:none;stroke:#000000;stroke-width:0.26458332px;stroke-linecap:butt;stroke-linejoin:miter;stroke-opacity:1" />
    <path
       id="path4099"
       d="m 35.988044,182.09523 c -4.310499,4.98199 -8.620998,9.96397 -12.931497,14.94596"
       style="fill:none;stroke:#000000;stroke-width:0.26458332px;stroke-linecap:butt;stroke-linejoin:miter;stroke-opacity:1" />
    <path
       id="path4101"
       d="m 31.979004,179.68981 c -4.297068,4.98199 -8.594137,9.96397 -12.891205,14.94596 1.322917,0.80181 2.645833,1.60361 3.96875,2.40542"
       style="fill:none;stroke:#000000;stroke-width:0.26458332px;stroke-linecap:butt;stroke-linejoin:miter;stroke-opacity:1" />
    <path
       id="path4103"
       d="m 31.979004,147.06179 c 1.336347,0.80181 2.672693,1.60362 4.00904,2.40543"
       style="fill:none;stroke:#000000;stroke-width:0.26458332px;stroke-linecap:butt;stroke-linejoin:miter;stroke-opacity:1" />
    <path
       id="path4105"
       d="m 35.988044,149.46722 c -4.310499,5.00024 -8.620998,10.00047 -12.931497,15.00071 4.310499,4.17602 8.620999,8.35203 12.931498,12.52805 0,1.69975 0,3.3995 0,5.09925"
       style="fill:none;stroke:#000000;stroke-width:0.26458332px;stroke-linecap:butt;stroke-linejoin:miter;stroke-opacity:1" />
    <path
       id="path4107"
       d="M 31.979004,179.68981 C 27.681936,175.451 23.384867,171.21218 19.087799,166.97337"
       style="fill:none;stroke:#000000;stroke-width:0.26458332px;stroke-linecap:butt;stroke-linejoin:miter;stroke-opacity:1" />
    <path
       id="path4109"
       d="m 19.087799,166.97337 c 0,-1.63696 0,-3.27391 0,-4.91087 4.297068,-5.00024 8.594137,-10.00047 12.891205,-15.00071"
       style="fill:none;stroke:#000000;stroke-width:0.26458332px;stroke-linecap:butt;stroke-linejoin:miter;stroke-opacity:1" />
    <path
       id="path4111"
       d="m 128.95754,147.06179 c -1.33635,0.80181 -2.67269,1.60362 -4.00904,2.40543 0,15.05618 0,30.11237 0,45.16855 1.33635,0.80181 2.67269,1.60361 4.00904,2.40542"
       style="fill:none;stroke:#000000;stroke-width:0.26458332px;stroke-linecap:butt;stroke-linejoin:miter;stroke-opacity:1" />
    <path
       id="path4115"
       d="m 128.95754,197.04119 c 3.02906,0 6.05811,0 9.08717,0 1.33635,-0.80181 2.67269,-1.60361 4.00904,-2.40542 0,-15.05618 0,-30.11237 0,-45.16855 -1.33635,-0.80181 -2.67269,-1.60362 -4.00904,-2.40543"
       style="fill:none;stroke:#000000;stroke-width:0.26458332px;stroke-linecap:butt;stroke-linejoin:miter;stroke-opacity:1" />
    <path
       id="path4117"
       d="m 138.04471,147.06179 c -3.02906,0 -6.05811,0 -9.08717,0"
       style="fill:none;stroke:#000000;stroke-width:0.26458332px;stroke-linecap:butt;stroke-linejoin:miter;stroke-opacity:1" />
    <path
       id="path4119"
       d="m 128.95754,152.00628 c 0,13.31893 0,26.63786 0,39.95679"
       style="fill:none;stroke:#000000;stroke-width:0.26458332px;stroke-linecap:butt;stroke-linejoin:miter;stroke-opacity:1" />
    <path
       id="path4121"
       d="m 128.95754,191.96307 c 3.02906,0 6.05811,0 9.08717,0 0,-13.31893 0,-26.63786 0,-39.95679 -3.02906,0 -6.05811,0 -9.08717,0"
       style="fill:none;stroke:#000000;stroke-width:0.26458332px;stroke-linecap:butt;stroke-linejoin:miter;stroke-opacity:1" />
  </g>
  <g
     transform="translate(-18.885451,-146.82814)"
     style="display:inline"
     id="layer2">
    <path
       transform="scale(0.26458333)"
       id="path4221"
       d="m 79.864331,739.56028 c -3.582569,-2.1937 -6.475427,-4.09833 -6.428572,-4.23253 0.04685,-0.13421 10.772691,-12.63177 23.835191,-27.77238 13.75595,-15.94438 23.78832,-27.86462 23.84106,-28.32743 0.0723,-0.63439 -4.87695,-5.68675 -24.017853,-24.51816 L 72.985236,630.99066 v -9.19632 -9.19633 l 23.25116,-27.08456 c 12.788144,-14.89651 23.618264,-27.46461 24.066954,-27.92911 l 0.8158,-0.84456 6.81705,4.05884 c 3.93208,2.34115 6.75341,4.23881 6.66666,4.48409 -0.11096,0.31379 -43.496199,50.89927 -47.737757,55.66036 -0.640783,0.71927 -0.338033,1.02965 23.985577,24.59019 l 24.63456,23.86173 v 9.20538 9.20537 l -24.13548,27.90086 c -13.274515,15.34548 -24.323622,27.88766 -24.553574,27.87153 -0.229951,-0.0161 -3.349286,-1.82416 -6.931855,-4.01785 z"
       style="fill:#ececec;stroke-width:0.35714287" />
    <path
       transform="scale(0.26458333)"
       id="path4223"
       d="m 215.84238,687.0484 v -56.20192 l -24.03271,-32.45879 c -13.21799,-17.85234 -24.14968,-32.6494 -24.29265,-32.88235 -0.17318,-0.28218 2.03481,-1.80021 6.61493,-4.54788 5.45067,-3.26993 6.96604,-4.03303 7.31494,-3.68359 0.24204,0.2424 11.21258,14.90502 24.37898,32.58359 l 23.9389,32.14286 -0.008,56.60714 -0.008,56.60714 -6.74683,4.01786 c -3.71077,2.20982 -6.8399,4.01786 -6.95363,4.01786 -0.11374,0 -0.20679,-25.29087 -0.20679,-56.20192 z"
       style="fill:#ececec;stroke-width:0.35714287" />
    <path
       transform="scale(0.26458333)"
       id="path4225"
       d="m 294.91969,736.05689 c 0.11588,-4.1954 0.31319,-44.35121 0.43847,-89.23514 l 0.22778,-81.60715 6.05243,-4.2416 c 5.06653,-3.55066 6.12726,-4.16152 6.51177,-3.75 0.25263,0.27038 9.96174,12.847 21.57579,27.94805 l 21.11645,27.45644 v 13.23999 c 0,7.66824 -0.13262,13.0972 -0.31513,12.9007 -0.17333,-0.18661 -9.27765,-12.47322 -20.23183,-27.30358 -10.95418,-14.83035 -20.21416,-27.28125 -20.57773,-27.66865 -0.64341,-0.68559 -0.66115,1.32259 -0.66553,75.35715 l -0.005,76.0615 -5.6205,3.30456 c -3.09127,1.81751 -6.31747,3.72332 -7.16933,4.23514 l -1.54883,0.93059 z"
       style="fill:#ececec;stroke-width:0.35714287" />
    <path
       transform="scale(0.26458333)"
       id="path4227"
       d="m 400.21738,739.24248 -6.51786,-3.94679 v -89.09368 -89.09367 l 1.33929,0.78722 c 0.7366,0.43298 3.79018,2.25607 6.78571,4.05131 l 5.44643,3.26407 v 89.01969 c 0,48.96083 -0.12054,89.00595 -0.26786,88.98917 -0.14732,-0.0168 -3.20089,-1.80658 -6.78571,-3.97732 z"
       style="fill:#ececec;stroke-width:0.35714287" />
    <path
       transform="scale(0.26458333)"
       id="path4229"
       d="m 480.21738,739.62984 -7.23214,-4.33048 0.011,-85.04238 0.0111,-85.04238 7.33962,-4.375 7.33962,-4.375 h 16.90581 16.90581 l 7.33962,4.375 7.33962,4.375 0.0111,85.04381 0.011,85.0438 -7.24534,4.3312 -7.24534,4.33119 -17.12966,-0.002 -17.12966,-0.002 z m 42.05357,-89.59381 V 573.9646 h -17.42857 c -13.07937,0 -17.53552,0.10695 -17.85714,0.42858 -0.62378,0.62377 -0.62378,150.66194 0,151.28571 0.32162,0.32163 4.77777,0.42857 17.85714,0.42857 h 17.42857 z"
       style="fill:#ececec;stroke-width:0.35714287" />
    <path
       transform="scale(0.26458333)"
       id="path4231"
       d="m 597.98524,650.23519 v -93.07464 l 0.98214,0.53174 c 0.54018,0.29245 3.63393,2.11033 6.875,4.03974 l 5.89286,3.508 0.0846,84.98729 0.0846,84.98728 -6.64878,3.92858 c -3.65683,2.16071 -6.78867,3.98214 -6.95964,4.04761 -0.17589,0.0674 -0.31085,-40.29234 -0.31085,-92.9556 z"
       style="fill:#ececec;stroke-width:0.35714287" />
  </g>
  <g
     transform="translate(-18.885451,-146.82814)"
     style="display:none"
     id="layer3">
    <path
       transform="scale(0.26458333)"
       id="path4233"
       d="m 85.748106,743.08535 c -0.516537,-0.26798 -3.114469,-1.8271 -5.773183,-3.46471 -2.658713,-1.6376 -5.158335,-3.13611 -5.554713,-3.33001 -0.984354,-0.48153 -0.904349,-1.27533 0.261454,-2.59413 0.540179,-0.61107 1.644067,-1.88555 2.453086,-2.83218 0.809018,-0.94663 9.708588,-11.28364 19.776823,-22.97114 21.567637,-25.03635 24.282907,-28.25703 24.285787,-28.80631 10e-4,-0.22739 -10.92641,-11.22396 -24.283553,-24.43682 L 72.628093,630.62668 v -8.85091 -8.8509 l 23.077319,-26.89085 c 12.692528,-14.78996 23.611198,-27.44077 24.263718,-28.1129 l 1.1864,-1.22205 6.18239,3.70307 c 3.40032,2.03669 6.43243,4.01186 6.73803,4.38926 0.51218,0.63251 0.48426,0.76387 -0.35682,1.67924 -0.50186,0.54618 -1.39461,1.58511 -1.98389,2.30874 -0.58929,0.72363 -1.47322,1.76066 -1.96429,2.30451 -0.49107,0.54385 -1.53571,1.76535 -2.32143,2.71446 -1.61517,1.95103 -39.153203,45.61487 -40.297818,46.87398 l -0.740767,0.81486 4.53981,4.54228 c 2.496896,2.49825 13.524955,13.22085 24.506805,23.82799 l 19.96699,19.28572 0.0304,9.38402 0.0304,9.38404 -18.45759,21.33025 c -10.15167,11.73164 -18.870424,21.7906 -19.375001,22.35324 -0.504577,0.56264 -1.319198,1.46653 -1.810269,2.00865 -0.491072,0.54213 -1.574973,1.76929 -2.408669,2.72702 -0.833697,0.95774 -2.039054,2.26015 -2.678572,2.89424 -0.639517,0.63408 -1.162759,1.28124 -1.162759,1.43812 0,0.15688 -0.653651,0.87577 -1.452557,1.59753 -1.363343,1.2317 -1.510239,1.28237 -2.391715,0.82506 z"
       style="fill:#333333;stroke-width:0.35714287" />
    <path
       transform="scale(0.26458333)"
       id="path4235"
       d="m 216.0701,742.09962 c -0.11988,-0.44747 -0.22059,-25.64394 -0.2238,-55.99216 l -0.006,-55.17857 -24.21803,-32.67857 c -19.81246,-26.73394 -24.15219,-32.78807 -23.85613,-33.28047 0.19904,-0.33105 0.4661,-0.5375 0.59346,-0.45878 0.12737,0.0787 0.54594,-0.13257 0.93016,-0.46953 0.38422,-0.33696 1.01124,-0.80392 1.39337,-1.03769 5.56304,-3.40318 8.45453,-5.0883 9.06164,-5.28099 0.40716,-0.12923 0.7403,-0.35806 0.7403,-0.50851 0,-0.15046 0.24107,-0.27355 0.53571,-0.27355 0.29464,0 0.53571,0.10933 0.53571,0.24297 0,0.13363 0.28125,0.574 0.625,0.97859 0.34375,0.40459 0.86608,1.08454 1.16072,1.51099 0.29464,0.42645 0.88393,1.20483 1.30954,1.72974 0.4256,0.5249 10.75149,14.3557 22.94643,30.73511 l 22.1726,29.78073 v 56.64867 56.64868 l -6.04102,3.62616 c -7.08877,4.25508 -7.36142,4.37102 -7.65983,3.25718 z"
       style="fill:#333333;stroke-width:0.35714287" />
    <path
       transform="scale(0.26458333)"
       id="path4237"
       d="m 294.93615,724.45841 c 0.245,-22.86424 0.52418,-89.78539 0.54365,-130.31523 l 0.0139,-28.92858 2.0316,-1.42857 c 1.11738,-0.78571 3.40566,-2.36235 5.08506,-3.50364 1.67939,-1.1413 3.29452,-2.2663 3.58916,-2.5 1.57645,-1.25043 1.0961,-1.80771 23.32472,27.05972 l 21.31814,27.68502 -0.0251,12.41517 c -0.0138,6.82834 -0.13593,12.69495 -0.27139,13.03691 -0.18508,0.46725 -5.3015,-6.20642 -20.59,-26.8569 -12.869,-17.38239 -20.44376,-27.32127 -20.616,-27.05032 -0.14975,0.23558 -0.27474,34.3452 -0.27775,75.79915 l -0.005,75.37081 -5.80357,3.43007 c -3.19196,1.88653 -6.41547,3.79009 -7.16336,4.23012 l -1.35979,0.80008 z"
       style="fill:#333333;stroke-width:0.35714287" />
    <path
       transform="scale(0.26458333)"
       id="path4239"
       d="m 407.29299,740.57175 -0.15511,-3.21429 -0.20132,2.91711 -0.20132,2.91712 -6.51786,-3.92095 -6.51786,-3.92095 v -89.08545 c 0,-48.997 0.0705,-89.08545 0.15658,-89.08545 0.25551,0 12.83922,7.56369 13.32627,8.01003 0.35626,0.32648 0.4287,18.51668 0.35644,89.50343 -0.0499,49.00153 -0.16051,87.64725 -0.24582,85.8794 z"
       style="fill:#333333;stroke-width:0.35714287" />
    <path
       transform="scale(0.26458333)"
       id="path4241"
       d="m 480.03881,739.62898 -7.05357,-4.27775 v -85.06968 -85.06967 l 7.29031,-4.37364 7.29032,-4.37364 h 17.02651 17.02651 l 7.29031,4.37364 7.29032,4.37364 v 85.06924 85.06924 l -7.16578,4.30712 -7.16579,4.30712 -17.38778,-0.0289 -17.38779,-0.0289 z m 42.23214,-89.59631 v -76.0748 l -17.58929,0.0927 -17.58928,0.0927 -0.0916,75.53571 c -0.0504,41.54464 -0.0152,75.73661 0.0781,75.98214 0.13253,0.34877 4.00046,0.44643 17.68085,0.44643 h 17.51121 z"
       style="fill:#333333;stroke-width:0.35714287" />
    <path
       transform="scale(0.26458333)"
       id="path4243"
       d="m 597.70101,650.3134 -0.0729,-93.47264 3.30357,1.9573 c 1.81697,1.07652 5.02998,2.96063 7.14004,4.18692 l 3.83646,2.22962 0.003,85.03055 0.003,85.03054 -6.69643,3.94803 -6.69643,3.94802 -0.16806,-4.33571 -0.16806,-4.33571 -0.20545,4.64286 c -0.113,2.55357 -0.23827,-37.41983 -0.27837,-88.82978 z"
       style="fill:#333333;stroke-width:0.35714287" />
  </g>
</svg>
